<svg width="100" height="100" xmlns="http://www.w3.org/2000/svg" fill="#00ffff" version="1.1" xml:space="preserve">
 <title>icon</title>

 <g>
  <title>Layer 1</title>
  <g id="svg_14">
   <rect fill="#212121" stroke="#000" width="100" height="100" id="svg_13" stroke-width="0" rx="20" y="0" x="0"/>
   <g id="svg_1">
    <g id="svg_2">
     <path d="m49.983,7.291c-28.781,0 -43.17,14.251 -43.17,42.752s14.389,42.751 43.17,42.751c28.825,0 43.238,-14.25 43.238,-42.751s-14.413,-42.752 -43.238,-42.752zm25.221,68.769c-5.288,5.497 -13.694,8.246 -25.221,8.246c-11.436,0 -19.81,-2.748 -25.12,-8.246c-5.31,-5.496 -7.965,-14.169 -7.965,-26.017c0,-11.849 2.655,-20.522 7.965,-26.018c5.31,-5.497 13.683,-8.246 25.12,-8.246c11.527,0 19.933,2.749 25.221,8.246c5.287,5.496 7.931,14.169 7.931,26.018c0,11.848 -2.644,20.52 -7.931,26.017z" fill="{{COLOR}}" id="svg_3"/>
     <path d="m63.001,29.522l-12.673,12.672l-7.76,-7.76c-2.036,-2.036 -5.336,-2.036 -7.372,0c-2.036,2.036 -2.036,5.336 0,7.372l11.365,11.365c1.038,1.038 2.406,1.544 3.767,1.523c1.361,0.021 2.728,-0.484 3.767,-1.523l16.277,-16.277c2.036,-2.036 2.036,-5.336 0,-7.372c-2.035,-2.036 -5.336,-2.036 -7.371,0z" fill="{{COLOR}}" id="svg_4"/>
     <path d="m73.966,49.932l0,0.111c0,0.208 -0.003,0.415 -0.008,0.622c-0.041,1.744 1.338,3.191 3.081,3.232c0.026,0.001 0.052,0.001 0.077,0.001c1.709,0 3.115,-1.365 3.156,-3.082c0.006,-0.257 0.009,-0.515 0.009,-0.773l0,-0.111c0,-1.744 -1.414,-3.158 -3.158,-3.158s-3.157,1.414 -3.157,3.158z" fill="{{COLOR}}" id="svg_5"/>
     <path d="m22.99,46.243c-1.728,-0.032 -3.189,1.341 -3.23,3.084c-0.006,0.238 -0.008,0.476 -0.008,0.715l0,0.055c0,1.744 1.414,3.13 3.158,3.13s3.158,-1.442 3.158,-3.185c0,-0.19 0.002,-0.38 0.007,-0.57c0.039,-1.743 -1.342,-3.189 -3.085,-3.229z" fill="{{COLOR}}" id="svg_6"/>
     <path d="m49.934,26.093l0.083,0c0.181,0 0.363,0.002 0.543,0.006c0.025,0.001 0.049,0.001 0.073,0.001c1.711,0 3.117,-1.367 3.156,-3.086c0.039,-1.744 -1.342,-3.189 -3.086,-3.228c-0.228,-0.005 -0.456,-0.008 -0.686,-0.008l-0.083,0c-1.744,0 -3.158,1.414 -3.158,3.158s1.414,3.157 3.158,3.157z" fill="{{COLOR}}" id="svg_7"/>
     <path d="m50.017,73.992c-0.199,0 -0.398,-0.002 -0.596,-0.007c-1.726,-0.049 -3.19,1.339 -3.231,3.083c-0.041,1.743 1.34,3.19 3.083,3.231c0.248,0.006 0.496,0.009 0.744,0.009l0.027,0c1.744,0 3.144,-1.414 3.144,-3.158s-1.427,-3.158 -3.171,-3.158z" fill="{{COLOR}}" id="svg_8"/>
    </g>
   </g>
  </g>
 </g>
</svg>